<svg xmlns="http://www.w3.org/2000/svg" xmlns:xlink="http://www.w3.org/1999/xlink" fill="none" version="1.1" width="32" height="32" viewBox="0 0 32 32"><g><g><path d="M27.74978828125,15.9998446875C27.74978828125,16.1987546875,27.67078828125,16.389554687500002,27.53018828125,16.5301546875C27.38948828125,16.6708546875,27.19878828125,16.749854687499997,26.99978828125,16.749854687499997C26.99978828125,16.749854687499997,6.8110782812499995,16.749854687499997,6.8110782812499995,16.749854687499997C6.8110782812499995,16.749854687499997,14.52978828125,24.4698546875,14.52978828125,24.4698546875C14.60348828125,24.5385546875,14.66258828125,24.6213546875,14.70358828125,24.7133546875C14.74458828125,24.8053546875,14.76668828125,24.9046546875,14.76838828125,25.0053546875C14.77018828125,25.1060546875,14.75168828125,25.2060546875,14.71398828125,25.2994546875C14.67618828125,25.3928546875,14.62008828125,25.4776546875,14.54888828125,25.5488546875C14.47768828125,25.6200546875,14.39278828125,25.6762546875,14.29938828125,25.7139546875C14.20603828125,25.7516546875,14.10600828125,25.7702546875,14.00530828125,25.7684546875C13.90459828125,25.7666546875,13.80528828125,25.7446546875,13.71328828125,25.7036546875C13.62128828125,25.6626546875,13.53848828125,25.6035546875,13.46982828125,25.5298546875C13.46982828125,25.5298546875,4.46982828125,16.5298546875,4.46982828125,16.5298546875C4.3293776812499996,16.3892546875,4.250488281250001,16.198594687499998,4.25048828125,15.9998446875C4.250488281250001,15.8010946875,4.3293776812499996,15.6104746875,4.46982828125,15.4698446875C4.46982828125,15.4698446875,13.46982828125,6.4698466875,13.46982828125,6.4698466875C13.61200828125,6.3373662875,13.80004828125,6.2652433175,13.99434828125,6.2686715345C14.18864828125,6.2720997475,14.37398828125,6.3508114875,14.51148828125,6.4882246875C14.64888828125,6.6256376875,14.72758828125,6.8110226874999995,14.73098828125,7.0053236875C14.73438828125,7.1996246875,14.66228828125,7.3876746875,14.52978828125,7.5298446875C14.52978828125,7.5298446875,6.8110782812499995,15.2498446875,6.8110782812499995,15.2498446875C6.8110782812499995,15.2498446875,26.99978828125,15.2498446875,26.99978828125,15.2498446875C27.19878828125,15.2498446875,27.38948828125,15.3288646875,27.53018828125,15.4695146875C27.67078828125,15.6101646875,27.74978828125,15.8009346875,27.74978828125,15.9998446875Z" fill="#343330" fill-opacity="1"/></g></g></svg>