<svg xmlns="http://www.w3.org/2000/svg" xmlns:xlink="http://www.w3.org/1999/xlink" fill="none" version="1.1" width="32" height="32" viewBox="0 0 32 32"><g><g><path d="M27.53,16.5298546875C27.53,16.5298546875,18.53,25.5298546875,18.53,25.5298546875C18.3878,25.6623546875,18.1998,25.7344546875,18.005499999999998,25.7310546875C17.8112,25.7275546875,17.625799999999998,25.6488546875,17.4884,25.5114546875C17.351,25.3740546875,17.2723,25.1886546875,17.2688,24.9943546875C17.2654,24.8000546875,17.3375,24.6120546875,17.47,24.4698546875C17.47,24.4698546875,25.1887,16.749854687499997,25.1887,16.749854687499997C25.1887,16.749854687499997,5,16.749854687499997,5,16.749854687499997C4.801088,16.749854687499997,4.610322,16.6708546875,4.46967,16.5301546875C4.3290175,16.389554687500002,4.250000000000001,16.1987546875,4.25,15.9998446875C4.25,15.8009346875,4.3290175,15.6101646875,4.46967,15.4695146875C4.610322,15.3288646875,4.801088,15.2498446875,5,15.2498446875C5,15.2498446875,25.1887,15.2498446875,25.1887,15.2498446875C25.1887,15.2498446875,17.47,7.5298446875,17.47,7.5298446875C17.3375,7.3876746875,17.2654,7.1996246875,17.2688,7.0053236875C17.2723,6.8110226874999995,17.351,6.6256376875,17.4884,6.4882246875C17.625799999999998,6.3508114875,17.8112,6.2720997475,18.005499999999998,6.2686715345C18.1998,6.2652433175,18.3878,6.3373662875,18.53,6.4698466875C18.53,6.4698466875,27.53,15.4698446875,27.53,15.4698446875C27.6705,15.6104746875,27.7493,15.8010946875,27.7493,15.9998446875C27.7493,16.198594687499998,27.6705,16.3892546875,27.53,16.5298546875Z" fill="#343330" fill-opacity="1"/></g></g></svg>