<svg xmlns="http://www.w3.org/2000/svg" xmlns:xlink="http://www.w3.org/1999/xlink" fill="none" version="1.1"  viewBox="0 0 32 32"><g><g><path d="M26,4.25C26,4.25,22.75,4.25,22.75,4.25C22.75,4.25,22.75,3,22.75,3C22.75,2.801088,22.671,2.610322,22.5303,2.46967C22.3897,2.3290175,22.1989,2.25,22,2.25C21.8011,2.25,21.6103,2.3290175,21.4697,2.46967C21.329,2.610322,21.25,2.801088,21.25,3C21.25,3,21.25,4.25,21.25,4.25C21.25,4.25,10.75,4.25,10.75,4.25C10.75,4.25,10.75,3,10.75,3C10.75,2.801088,10.67098,2.610322,10.53033,2.46967C10.38968,2.3290175,10.19891,2.25,10,2.25C9.80109,2.25,9.61032,2.3290175,9.46967,2.46967C9.32902,2.610322,9.25,2.801088,9.25,3C9.25,3,9.25,4.25,9.25,4.25C9.25,4.25,6,4.25,6,4.25C5.53587,4.25,5.090752,4.4343699999999995,4.762563,4.762560000000001C4.434375,5.09075,4.25,5.53587,4.25,6C4.25,6,4.25,26,4.25,26C4.25,26.4641,4.434375,26.9092,4.762563,27.2374C5.090752,27.5656,5.53587,27.75,6,27.75C6,27.75,26,27.75,26,27.75C26.4641,27.75,26.9092,27.5656,27.2374,27.2374C27.5656,26.9092,27.75,26.4641,27.75,26C27.75,26,27.75,6,27.75,6C27.75,5.53587,27.5656,5.09075,27.2374,4.762560000000001C26.9092,4.4343699999999995,26.4641,4.25,26,4.25ZM6,5.75C6,5.75,9.25,5.75,9.25,5.75C9.25,5.75,9.25,7,9.25,7C9.25,7.19891,9.32902,7.38968,9.46967,7.53033C9.61032,7.67098,9.80109,7.75,10,7.75C10.19891,7.75,10.38968,7.67098,10.53033,7.53033C10.67098,7.38968,10.75,7.19891,10.75,7C10.75,7,10.75,5.75,10.75,5.75C10.75,5.75,21.25,5.75,21.25,5.75C21.25,5.75,21.25,7,21.25,7C21.25,7.19891,21.329,7.38968,21.4697,7.53033C21.6103,7.67098,21.8011,7.75,22,7.75C22.1989,7.75,22.3897,7.67098,22.5303,7.53033C22.671,7.38968,22.75,7.19891,22.75,7C22.75,7,22.75,5.75,22.75,5.75C22.75,5.75,26,5.75,26,5.75C26.0663,5.75,26.1299,5.776339999999999,26.1768,5.82322C26.2237,5.87011,26.25,5.9337,26.25,6C26.25,6,26.25,10.25,26.25,10.25C26.25,10.25,5.75,10.25,5.75,10.25C5.75,10.25,5.75,6,5.75,6C5.75,5.9337,5.77634,5.87011,5.82322,5.82322C5.87011,5.776339999999999,5.9337,5.75,6,5.75ZM26,26.25C26,26.25,6,26.25,6,26.25C5.9337,26.25,5.87011,26.2237,5.82322,26.1768C5.77634,26.1299,5.75,26.0663,5.75,26C5.75,26,5.75,11.75,5.75,11.75C5.75,11.75,26.25,11.75,26.25,11.75C26.25,11.75,26.25,26,26.25,26C26.25,26.0663,26.2237,26.1299,26.1768,26.1768C26.1299,26.2237,26.0663,26.25,26,26.25Z" fill="currentColor" fill-opacity="0.6"/></g></g></svg>