<svg xmlns="http://www.w3.org/2000/svg" xmlns:xlink="http://www.w3.org/1999/xlink" fill="none" version="1.1" viewBox="0 0 32 32"><g><g><path d="M28.5298546875,9.5298446875C28.5298546875,9.5298446875,12.5298446875,25.5298546875,12.5298446875,25.5298546875C12.3892246875,25.6702546875,12.1985946875,25.7491546875,11.999844687500001,25.7491546875C11.801094687500001,25.7491546875,11.6104746875,25.6702546875,11.4698446875,25.5298546875C11.4698446875,25.5298546875,4.4698466875,18.5298546875,4.4698466875,18.5298546875C4.3373662875,18.3876546875,4.2652433175,18.1996246875,4.2686715345,18.0053246875C4.2720997475,17.8110246875,4.3508114875,17.6256346875,4.4882246875,17.4882246875C4.6256376875,17.350814687499998,4.8110226874999995,17.2721046875,5.0053236875,17.268674687500003C5.1996246875,17.2652446875,5.3876746875,17.3373646875,5.5298446875,17.4698446875C5.5298446875,17.4698446875,11.999844687500001,23.9385546875,11.999844687500001,23.9385546875C11.999844687500001,23.9385546875,27.4698546875,8.4698476875,27.4698546875,8.4698476875C27.6120546875,8.3373671875,27.8000546875,8.2652433175,27.9943546875,8.2686715335C28.1886546875,8.2720997475,28.3740546875,8.3508124875,28.5114546875,8.4882256875C28.6488546875,8.6256386875,28.7275546875,8.8110236875,28.7310546875,9.0053246875C28.7344546875,9.1996256875,28.6623546875,9.3876746875,28.5298546875,9.5298446875Z" fill="currentColor" fill-opacity="1"/></g></g></svg>