<svg xmlns="http://www.w3.org/2000/svg" xmlns:xlink="http://www.w3.org/1999/xlink" fill="none" version="1.1" width="32" height="32" viewBox="0 0 32 32"><g><g><path d="M21.529994277954103,12.47C21.670494277954102,12.61063,21.749294277954103,12.80125,21.749294277954103,13C21.749294277954103,13.19875,21.670494277954102,13.3894,21.529994277954103,13.53C21.529994277954103,13.53,14.529994277954101,20.53,14.529994277954101,20.53C14.389394277954102,20.6705,14.198794277954102,20.7493,13.999994277954102,20.7493C13.801294277954101,20.7493,13.610594277954101,20.6705,13.469994277954102,20.53C13.469994277954102,20.53,10.470004277954102,17.53,10.470004277954102,17.53C10.337524277954103,17.3878,10.265394277954101,17.1998,10.268824277954103,17.005499999999998C10.2722542779541,16.8112,10.350964277954102,16.625799999999998,10.488374277954101,16.4884C10.625794277954101,16.351,10.811174277954102,16.2723,11.005474277954102,16.2688C11.199774277954102,16.2654,11.3878242779541,16.3375,11.530004277954102,16.47C11.530004277954102,16.47,13.999994277954102,18.9387,13.999994277954102,18.9387C13.999994277954102,18.9387,20.4699942779541,12.47,20.4699942779541,12.47C20.610594277954103,12.32955,20.801294277954103,12.25066,20.9999942779541,12.25066C21.1987942779541,12.25066,21.3893942779541,12.32955,21.529994277954103,12.47ZM28.7499942779541,16C28.7499942779541,18.5217,28.0021942779541,20.9868,26.6011942779541,23.0835C25.2002942779541,25.1802,23.2089942779541,26.8144,20.879194277954102,27.7795C18.549494277954103,28.7445,15.985894277954102,28.997,13.512594277954102,28.505C11.0393442779541,28.0131,8.767504277954101,26.7987,6.984384277954101,25.0156C5.201264277954102,23.2325,3.9869492779541016,20.9607,3.4949872779541016,18.4874C3.0030262779541017,16.0141,3.255518437954102,13.4505,4.220535277954101,11.12079C5.185554277954101,8.79103,6.819754277954102,6.7997499999999995,8.916474277954102,5.398759999999999C11.013204277954102,3.997774,13.478294277954102,3.2500000000000013,15.999994277954102,3.25C19.3802942779541,3.25396981,22.6209942779541,4.59854,25.0111942779541,6.988770000000001C27.4014942779541,9.379,28.7459942779541,12.61971,28.7499942779541,16ZM27.2499942779541,16C27.2499942779541,13.775,26.5901942779541,11.59989,25.3539942779541,9.749839999999999C24.1178942779541,7.89978,22.360894277954102,6.45784,20.3051942779541,5.6063600000000005C18.2494942779541,4.75487,15.987494277954102,4.5320800000000006,13.8051942779541,4.96617C11.622944277954101,5.40025,9.618394277954103,6.47171,8.045044277954101,8.04505C6.471704277954101,9.61839,5.400244277954101,11.62295,4.9661642779541015,13.8052C4.532084277954102,15.9875,4.754874277954102,18.249499999999998,5.606354277954102,20.3052C6.457844277954102,22.3609,7.899784277954102,24.1179,9.7498342779541,25.354C11.599884277954102,26.5902,13.774994277954102,27.25,15.999994277954102,27.25C18.982694277954103,27.2467,21.8421942779541,26.0604,23.9512942779541,23.9513C26.060394277954103,21.8422,27.246694277954102,18.9827,27.2499942779541,16Z" fill="#3D4672" fill-opacity="1"/></g></g></svg>