<svg xmlns="http://www.w3.org/2000/svg" xmlns:xlink="http://www.w3.org/1999/xlink" fill="none" version="1.1" width="32" height="32" viewBox="0 0 32 32"><g><g><path d="M15.999994277954102,3.25C13.478294277954102,3.2499999999999996,11.013204277954102,3.997774,8.916474277954102,5.398759999999999C6.819754277954102,6.7997499999999995,5.185554277954101,8.79103,4.220535277954101,11.12079C3.255518437954102,13.4505,3.0030262779541017,16.0141,3.4949872779541016,18.4874C3.9869492779541016,20.9607,5.201264277954102,23.2325,6.984384277954101,25.0156C8.767504277954101,26.7987,11.0393442779541,28.0131,13.512594277954102,28.505C15.985894277954102,28.997,18.549494277954103,28.7445,20.879194277954102,27.7795C23.2089942779541,26.8144,25.2002942779541,25.1802,26.6011942779541,23.0835C28.0021942779541,20.9868,28.7499942779541,18.5217,28.7499942779541,16C28.7459942779541,12.61971,27.4014942779541,9.379,25.0111942779541,6.988770000000001C22.6209942779541,4.59854,19.3802942779541,3.25396981,15.999994277954102,3.25ZM15.999994277954102,27.25C13.774994277954102,27.25,11.599884277954102,26.5902,9.7498342779541,25.354C7.899784277954102,24.1179,6.457844277954102,22.3609,5.606354277954102,20.3052C4.754874277954102,18.249499999999998,4.532084277954102,15.9875,4.9661642779541015,13.8052C5.400244277954101,11.62295,6.471704277954101,9.61839,8.045044277954101,8.04505C9.618394277954103,6.47171,11.622944277954101,5.40025,13.8051942779541,4.96617C15.987494277954102,4.5320800000000006,18.2494942779541,4.75487,20.3051942779541,5.6063600000000005C22.360894277954102,6.45784,24.1178942779541,7.89978,25.3539942779541,9.749839999999999C26.5901942779541,11.59989,27.2499942779541,13.775,27.2499942779541,16C27.246694277954102,18.9827,26.060394277954103,21.8422,23.9512942779541,23.9513C21.8421942779541,26.0604,18.982694277954103,27.2467,15.999994277954102,27.25ZM23.7499942779541,16C23.7499942779541,16.198900000000002,23.6709942779541,16.389699999999998,23.530294277954102,16.5303C23.389694277954103,16.671,23.1988942779541,16.75,22.9999942779541,16.75C22.9999942779541,16.75,15.999994277954102,16.75,15.999994277954102,16.75C15.801094277954101,16.75,15.610294277954102,16.671,15.469694277954101,16.5303C15.328994277954102,16.389699999999998,15.249994277954102,16.198900000000002,15.249994277954102,16C15.249994277954102,16,15.249994277954102,9,15.249994277954102,9C15.249994277954102,8.80109,15.328994277954102,8.61032,15.469694277954101,8.46967C15.610294277954102,8.32902,15.801094277954101,8.25,15.999994277954102,8.25C16.198894277954103,8.25,16.3896942779541,8.32902,16.530294277954102,8.46967C16.6709942779541,8.61032,16.7499942779541,8.80109,16.7499942779541,9C16.7499942779541,9,16.7499942779541,15.25,16.7499942779541,15.25C16.7499942779541,15.25,22.9999942779541,15.25,22.9999942779541,15.25C23.1988942779541,15.25,23.389694277954103,15.329,23.530294277954102,15.4697C23.6709942779541,15.6103,23.7499942779541,15.8011,23.7499942779541,16Z" fill="#343330" fill-opacity="0.6"/></g></g></svg>