<svg xmlns="http://www.w3.org/2000/svg" xmlns:xlink="http://www.w3.org/1999/xlink" fill="none" version="1.1" viewBox="0 0 32 32"><g><g><path d="M15.999994277954102,3.25C13.478294277954102,3.2499999999999996,11.013204277954102,3.997774,8.916474277954102,5.398759999999999C6.819754277954102,6.7997499999999995,5.185554277954101,8.79103,4.220535277954101,11.12079C3.255518437954102,13.4505,3.0030262779541017,16.0141,3.4949872779541016,18.4874C3.9869492779541016,20.9607,5.201264277954102,23.2325,6.984384277954101,25.0156C8.767504277954101,26.7987,11.0393442779541,28.0131,13.512594277954102,28.505C15.985894277954102,28.997,18.549494277954103,28.7445,20.879194277954102,27.7795C23.2089942779541,26.8144,25.2002942779541,25.1802,26.6011942779541,23.0835C28.0021942779541,20.9868,28.7499942779541,18.5217,28.7499942779541,16C28.7459942779541,12.61971,27.4014942779541,9.379,25.0111942779541,6.988770000000001C22.6209942779541,4.59854,19.3802942779541,3.25396981,15.999994277954102,3.25ZM15.999994277954102,27.25C13.774994277954102,27.25,11.599884277954102,26.5902,9.7498342779541,25.354C7.899784277954102,24.1179,6.457844277954102,22.3609,5.606354277954102,20.3052C4.754874277954102,18.249499999999998,4.532084277954102,15.9875,4.9661642779541015,13.8052C5.400244277954101,11.62295,6.471704277954101,9.61839,8.045044277954101,8.04505C9.618394277954103,6.47171,11.622944277954101,5.40025,13.8051942779541,4.96617C15.987494277954102,4.5320800000000006,18.2494942779541,4.75487,20.3051942779541,5.6063600000000005C22.360894277954102,6.45784,24.1178942779541,7.89978,25.3539942779541,9.749839999999999C26.5901942779541,11.59989,27.2499942779541,13.775,27.2499942779541,16C27.246694277954102,18.9827,26.060394277954103,21.8422,23.9512942779541,23.9513C21.8421942779541,26.0604,18.982694277954103,27.2467,15.999994277954102,27.25ZM17.2499942779541,16C17.2499942779541,16.2472,17.176694277954102,16.4889,17.039294277954102,16.694499999999998C16.901994277954103,16.9,16.706794277954103,17.060200000000002,16.478394277954102,17.154899999999998C16.2499942779541,17.249499999999998,15.998594277954101,17.2742,15.756094277954102,17.226C15.513694277954102,17.1777,15.290894277954102,17.0587,15.116094277954101,16.8839C14.941294277954102,16.7091,14.822294277954102,16.4863,14.7739942779541,16.2439C14.725794277954101,16.0014,14.750494277954102,15.7501,14.845194277954102,15.5216C14.939794277954102,15.2932,15.099994277954101,15.098,15.305494277954102,14.9607C15.511094277954102,14.8233,15.752794277954102,14.75,15.999994277954102,14.75C16.3314942779541,14.75,16.6494942779541,14.8817,16.883894277954102,15.1161C17.1182942779541,15.3505,17.2499942779541,15.6685,17.2499942779541,16ZM11.750004277954101,16C11.750004277954101,16.2472,11.676684277954102,16.4889,11.5393342779541,16.694499999999998C11.401984277954101,16.9,11.2067642779541,17.060200000000002,10.978354277954102,17.154899999999998C10.749944277954102,17.249499999999998,10.4986142779541,17.2742,10.256134277954102,17.226C10.013664277954103,17.1777,9.7909342779541,17.0587,9.6161142779541,16.8839C9.441304277954101,16.7091,9.322254277954102,16.4863,9.274014277954102,16.2439C9.225784277954101,16.0014,9.250544277954102,15.7501,9.345154277954101,15.5216C9.439764277954101,15.2932,9.599974277954102,15.098,9.805534277954102,14.9607C10.0110942779541,14.8233,10.252774277954101,14.75,10.500004277954101,14.75C10.831524277954102,14.75,11.149464277954102,14.8817,11.3838842779541,15.1161C11.6183042779541,15.3505,11.750004277954101,15.6685,11.750004277954101,16ZM22.7499942779541,16C22.7499942779541,16.2472,22.676694277954102,16.4889,22.539294277954102,16.694499999999998C22.401994277954103,16.9,22.206794277954103,17.060200000000002,21.978394277954102,17.154899999999998C21.7499942779541,17.249499999999998,21.4985942779541,17.2742,21.2560942779541,17.226C21.0136942779541,17.1777,20.790894277954102,17.0587,20.6160942779541,16.8839C20.4412942779541,16.7091,20.3222942779541,16.4863,20.273994277954102,16.2439C20.2257942779541,16.0014,20.2504942779541,15.7501,20.3451942779541,15.5216C20.439794277954103,15.2932,20.599994277954103,15.098,20.8054942779541,14.9607C21.0110942779541,14.8233,21.252794277954102,14.75,21.4999942779541,14.75C21.8314942779541,14.75,22.1494942779541,14.8817,22.383894277954102,15.1161C22.618294277954103,15.3505,22.7499942779541,15.6685,22.7499942779541,16Z" fill="currentColor" fill-opacity="1"/></g></g></svg>