<svg xmlns="http://www.w3.org/2000/svg" xmlns:xlink="http://www.w3.org/1999/xlink" fill="none" version="1.1" width="32" height="32" viewBox="0 0 32 32"><g><g><path d="M14.749999598731684,7.499999523162842C14.749999598731684,7.252769523162842,14.823310646325684,7.0110985231628415,14.960662046325684,6.805537523162842C15.098014046325684,6.599975523162842,15.293237046325684,6.439760523162842,15.521645046325684,6.345150623162842C15.750049046325683,6.250541128162841,16.001389046325684,6.2257869231628415,16.243859046325685,6.274018523162842C16.486339046325682,6.322250023162842,16.709069046325684,6.441301523162842,16.883879046325685,6.616116523162842C17.058699046325685,6.790932523162842,17.177749046325683,7.013660523162842,17.225979046325683,7.256139523162842C17.274209046325684,7.498609523162842,17.249459046325683,7.749949523162842,17.154849046325683,7.978359523162842C17.060239046325684,8.206759523162841,16.900029046325685,8.401989523162841,16.694459046325683,8.539339523162841C16.488899046325685,8.676689523162842,16.247229046325685,8.749999523162842,15.999999046325684,8.749999523162842C15.668479046325684,8.749999523162842,15.350537046325684,8.618299523162841,15.116116046325683,8.383879523162841C14.881696046325684,8.149459523162841,14.749999598731684,7.831519523162842,14.749999598731684,7.499999523162842ZM15.999999046325684,14.749999523162842C15.752769046325684,14.749999523162842,15.511098046325683,14.823309523162841,15.305537046325684,14.960659523162843C15.099975046325683,15.098019523162842,14.939760046325684,15.293239523162843,14.845150546325684,15.521649523162841C14.750541001325683,15.750049523162842,14.725786346325684,16.001389523162842,14.774017846325684,16.24385952316284C14.822249446325683,16.48629952316284,14.941300046325683,16.70909952316284,15.116116046325683,16.883899523162842C15.290932046325684,17.058699523162844,15.513660046325684,17.17779952316284,15.756139046325684,17.22599952316284C15.998609046325683,17.274199523162842,16.249949046325682,17.24949952316284,16.478349046325683,17.15489952316284C16.706759046325683,17.060199523162844,16.901989046325685,16.89999952316284,17.039339046325683,16.69449952316284C17.176689046325684,16.488899523162843,17.249999046325684,16.247229523162844,17.249999046325684,15.999999523162842C17.249999046325684,15.668479523162842,17.118309046325685,15.350539523162842,16.883879046325685,15.116119523162842C16.649459046325685,14.881699523162842,16.331519046325685,14.749999523162842,15.999999046325684,14.749999523162842ZM15.999999046325684,23.249999523162842C15.752769046325684,23.249999523162842,15.511098046325683,23.32329952316284,15.305537046325684,23.46069952316284C15.099975046325683,23.59799952316284,14.939760046325684,23.79319952316284,14.845150546325684,24.02159952316284C14.750541001325683,24.25009952316284,14.725786346325684,24.501399523162842,14.774017846325684,24.743899523162842C14.822249446325683,24.98629952316284,14.941300046325683,25.20909952316284,15.116116046325683,25.383899523162842C15.290932046325684,25.558699523162844,15.513660046325684,25.677699523162843,15.756139046325684,25.72599952316284C15.998609046325683,25.774199523162842,16.249949046325682,25.749499523162843,16.478349046325683,25.654899523162843C16.706759046325683,25.56019952316284,16.901989046325685,25.39999952316284,17.039339046325683,25.194499523162843C17.176689046325684,24.988899523162843,17.249999046325684,24.74719952316284,17.249999046325684,24.499999523162842C17.249999046325684,24.168499523162843,17.118309046325685,23.850499523162842,16.883879046325685,23.61609952316284C16.649459046325685,23.38169952316284,16.331519046325685,23.249999523162842,15.999999046325684,23.249999523162842Z" fill="#343330" fill-opacity="1"/></g></g></svg>