<svg xmlns="http://www.w3.org/2000/svg" xmlns:xlink="http://www.w3.org/1999/xlink" fill="none" version="1.1" width="32" height="32" viewBox="0 0 32 32"><g><g><path d="M17.249999523162842,16C17.249999523162842,16.247230000000002,17.176699523162842,16.4889,17.039299523162843,16.69446C16.901999523162843,16.90003,16.706799523162843,17.06024,16.478399523162842,17.15485C16.24994952316284,17.24946,15.998609523162841,17.27421,15.756139523162842,17.22598C15.513659523162842,17.17775,15.290929523162841,17.0587,15.116119523162842,16.88388C14.941299523162842,16.70907,14.822249523162842,16.48634,14.774019523162842,16.24386C14.725789523162842,16.00139,14.750539523162843,15.75005,14.845149523162842,15.521646C14.939759523162842,15.293238,15.099979523162842,15.098015,15.305539523162842,14.960663C15.511099523162843,14.8233111,15.752769523162842,14.75,15.999999523162842,14.75C16.33149952316284,14.75,16.64949952316284,14.881696,16.883899523162842,15.116117C17.11829952316284,15.350537,17.249999523162842,15.668479,17.249999523162842,16ZM7.499999523162842,14.75C7.252769523162842,14.75,7.0110985231628415,14.8233111,6.805537523162842,14.960663C6.599975523162842,15.098015,6.439760523162842,15.293238,6.345150623162842,15.521646C6.250541128162841,15.75005,6.2257869231628415,16.00139,6.274018523162842,16.24386C6.322250023162842,16.48634,6.441301523162842,16.70907,6.616116523162842,16.88388C6.790932523162842,17.0587,7.013660523162842,17.17775,7.256139523162842,17.22598C7.498609523162842,17.27421,7.749949523162842,17.24946,7.978359523162842,17.15485C8.206759523162841,17.06024,8.401989523162841,16.90003,8.539339523162841,16.69446C8.676689523162842,16.4889,8.749999523162842,16.247230000000002,8.749999523162842,16C8.749999523162842,15.668479,8.618299523162841,15.350537,8.383879523162841,15.116117C8.149459523162841,14.881696,7.831519523162842,14.75,7.499999523162842,14.75ZM24.499999523162842,14.75C24.252799523162842,14.75,24.01109952316284,14.8233111,23.80549952316284,14.960663C23.599999523162843,15.098015,23.439799523162844,15.293238,23.34509952316284,15.521646C23.25049952316284,15.75005,23.22579952316284,16.00139,23.273999523162843,16.24386C23.32229952316284,16.48634,23.44129952316284,16.70907,23.61609952316284,16.88388C23.790899523162842,17.0587,24.013699523162842,17.17775,24.256099523162842,17.22598C24.49859952316284,17.27421,24.749899523162842,17.24946,24.978399523162842,17.15485C25.206799523162843,17.06024,25.401999523162843,16.90003,25.539299523162843,16.69446C25.676699523162842,16.4889,25.749999523162842,16.247230000000002,25.749999523162842,16C25.749999523162842,15.668479,25.618299523162843,15.350537,25.383899523162842,15.116117C25.14949952316284,14.881696,24.83149952316284,14.75,24.499999523162842,14.75Z" fill="#343330" fill-opacity="1"/></g></g></svg>