<svg xmlns="http://www.w3.org/2000/svg" xmlns:xlink="http://www.w3.org/1999/xlink" fill="none" version="1.1" viewBox="0 0 32 32"><g><g><path d="M26.5298546875,12.5298446875C26.5298546875,12.5298446875,16.5298546875,22.5298546875,16.5298546875,22.5298546875C16.3892546875,22.670254687499998,16.1985546875,22.749154687500003,15.9998546875,22.749154687500003C15.8010546875,22.749154687500003,15.6104546875,22.670254687499998,15.4698546875,22.5298546875C15.4698546875,22.5298546875,5.4698466875,12.5298446875,5.4698466875,12.5298446875C5.3373662875,12.3876746875,5.2652433175,12.1996256875,5.2686715345,12.0053246875C5.2720997475,11.8110236875,5.3508114875,11.6256386875,5.4882246875,11.4882256875C5.6256376875,11.3508124875,5.8110226874999995,11.2720997475,6.0053236875,11.2686715335C6.1996246875,11.2652433175,6.3876746875,11.3373671875,6.5298446875,11.4698476875C6.5298446875,11.4698476875,15.9998546875,20.9385946875,15.9998546875,20.9385946875C15.9998546875,20.9385946875,25.4698546875,11.4698476875,25.4698546875,11.4698476875C25.6120546875,11.3373671875,25.8000546875,11.2652433175,25.9943546875,11.2686715335C26.1886546875,11.2720997475,26.3740546875,11.3508124875,26.5114546875,11.4882256875C26.6488546875,11.6256386875,26.7275546875,11.8110236875,26.7310546875,12.0053246875C26.7344546875,12.1996256875,26.6623546875,12.3876746875,26.5298546875,12.5298446875Z" fill="currentColor" fill-opacity="1"/></g></g></svg>