<svg xmlns="http://www.w3.org/2000/svg" xmlns:xlink="http://www.w3.org/1999/xlink" fill="none" version="1.1" width="32" height="32" viewBox="0 0 32 32"><g><g><path d="M28.23749713897705,9.347903437500001C28.23749713897705,9.347903437500001,22.65129713897705,3.7616494375,22.65129713897705,3.7616494375C22.488797138977052,3.5991284375,22.29579713897705,3.4702084375,22.08349713897705,3.3822514375C21.871197138977053,3.2942943375000002,21.64359713897705,3.2490234375,21.41379713897705,3.2490234375C21.183897138977052,3.2490234375,20.95629713897705,3.2942943375000002,20.74399713897705,3.3822514375C20.53169713897705,3.4702084375,20.33879713897705,3.5991284375,20.17629713897705,3.7616494375C20.17629713897705,3.7616494375,4.7625001389770505,19.176623437499998,4.7625001389770505,19.176623437499998C4.599668138977051,19.3389234375,4.470554138977051,19.5318234375,4.382596138977051,19.7442234375C4.294637738977051,19.9566234375,4.249573548977051,20.1842234375,4.25000013951705,20.4141234375C4.25000013951705,20.4141234375,4.25000013951705,26.0004234375,4.25000013951705,26.0004234375C4.25000013951705,26.4645234375,4.4343751389770505,26.9096234375,4.76256313897705,27.2378234375C5.0907521389770505,27.5660234375,5.535867138977051,27.7504234375,5.999997138977051,27.7504234375C5.999997138977051,27.7504234375,11.58624713897705,27.7504234375,11.58624713897705,27.7504234375C11.816127138977052,27.7508234375,12.04382713897705,27.7057234375,12.25620713897705,27.6178234375C12.468597138977051,27.5298234375,12.66147713897705,27.4007234375,12.823747138977051,27.2379234375C12.823747138977051,27.2379234375,28.23749713897705,11.8229034375,28.23749713897705,11.8229034375C28.39999713897705,11.6603934375,28.52889713897705,11.4674634375,28.616897138977052,11.2551334375C28.70489713897705,11.0428034375,28.75009713897705,10.8152234375,28.75009713897705,10.5854034375C28.75009713897705,10.3555734375,28.70489713897705,10.127993437499999,28.616897138977052,9.915663437500001C28.52889713897705,9.7033334375,28.39999713897705,9.510403437499999,28.23749713897705,9.347903437500001ZM11.76249713897705,26.1766234375C11.715827138977051,26.2236234375,11.65244713897705,26.2501234375,11.58624713897705,26.2504234375C11.58624713897705,26.2504234375,5.999997138977051,26.2504234375,5.999997138977051,26.2504234375C5.933697138977051,26.2504234375,5.870107138977051,26.2240234375,5.8232271389770505,26.1772234375C5.776337138977051,26.1303234375,5.749997138977051,26.0667234375,5.749997138977051,26.0004234375C5.749997138977051,26.0004234375,5.749997138977051,20.4141234375,5.749997138977051,20.4141234375C5.750277138977051,20.3479234375,5.7767971389770505,20.2845234375,5.823747138977051,20.2379234375C5.823747138977051,20.2379234375,16.99999713897705,9.0604034375,16.99999713897705,9.0604034375C16.99999713897705,9.0604034375,22.93879713897705,15.0004234375,22.93879713897705,15.0004234375C22.93879713897705,15.0004234375,11.76249713897705,26.1766234375,11.76249713897705,26.1766234375ZM27.176297138977052,10.7629034375C27.176297138977052,10.7629034375,23.99999713897705,13.9391234375,23.99999713897705,13.9391234375C23.99999713897705,13.9391234375,18.06129713897705,8.000403437500001,18.06129713897705,8.000403437500001C18.06129713897705,8.000403437500001,21.23749713897705,4.8229034375,21.23749713897705,4.8229034375C21.26069713897705,4.7996534375,21.28829713897705,4.7812134375,21.31859713897705,4.7686334375C21.34899713897705,4.7560534375,21.38149713897705,4.7495734375000005,21.41439713897705,4.7495734375000005C21.44719713897705,4.7495734375000005,21.47979713897705,4.7560534375,21.510097138977052,4.7686334375C21.540497138977052,4.7812134375,21.567997138977052,4.7996534375,21.59129713897705,4.8229034375C21.59129713897705,4.8229034375,27.176297138977052,10.409153437499999,27.176297138977052,10.409153437499999C27.19949713897705,10.432363437500001,27.21789713897705,10.4599434375,27.23049713897705,10.4902934375C27.24309713897705,10.5206434375,27.24959713897705,10.5531734375,27.24959713897705,10.5860234375C27.24959713897705,10.6188734375,27.24309713897705,10.6514134375,27.23049713897705,10.681763437499999C27.21789713897705,10.712113437500001,27.19949713897705,10.7396834375,27.176297138977052,10.7629034375Z" fill="#343330" fill-opacity="1"/></g></g></svg>