<svg xmlns="http://www.w3.org/2000/svg" xmlns:xlink="http://www.w3.org/1999/xlink" fill="none" version="1.1" viewBox="0 0 32 32"><g><g><path d="M27.75,16C27.75,16.198900000000002,27.671,16.389699999999998,27.5303,16.5303C27.3897,16.671,27.1989,16.75,27,16.75C27,16.75,16.75,16.75,16.75,16.75C16.75,16.75,16.75,27,16.75,27C16.75,27.1989,16.671,27.3897,16.5303,27.5303C16.389699999999998,27.671,16.198900000000002,27.75,16,27.75C15.8011,27.75,15.6103,27.671,15.4697,27.5303C15.329,27.3897,15.25,27.1989,15.25,27C15.25,27,15.25,16.75,15.25,16.75C15.25,16.75,5,16.75,5,16.75C4.801088,16.75,4.610322,16.671,4.46967,16.5303C4.3290175,16.389699999999998,4.250000000000001,16.198900000000002,4.25,16C4.25,15.8011,4.3290175,15.6103,4.46967,15.4697C4.610322,15.329,4.801088,15.25,5,15.25C5,15.25,15.25,15.25,15.25,15.25C15.25,15.25,15.25,5,15.25,5C15.25,4.801088,15.329,4.610322,15.4697,4.46967C15.6103,4.3290175,15.8011,4.250000000000001,16,4.25C16.198900000000002,4.250000000000001,16.389699999999998,4.3290175,16.5303,4.46967C16.671,4.610322,16.75,4.801088,16.75,5C16.75,5,16.75,15.25,16.75,15.25C16.75,15.25,27,15.25,27,15.25C27.1989,15.25,27.3897,15.329,27.5303,15.4697C27.671,15.6103,27.75,15.8011,27.75,16Z" fill="currentColor" fill-opacity="1"/></g></g></svg>