<svg xmlns="http://www.w3.org/2000/svg" xmlns:xlink="http://www.w3.org/1999/xlink" fill="none" version="1.1" viewBox="0 0 32 32"><g><g><path d="M29.75,11C29.75,11,29.75,19,29.75,19C29.75,19.198909999999998,29.671,19.38968,29.5303,19.53033C29.3897,19.67098,29.1989,19.75,29,19.75C29,19.75,21,19.75,21,19.75C20.8011,19.75,20.6103,19.67098,20.4697,19.53033C20.329,19.38968,20.25,19.198909999999998,20.25,19C20.25,18.801090000000002,20.329,18.61032,20.4697,18.46967C20.6103,18.32902,20.8011,18.25,21,18.25C21,18.25,27.1812,18.25,27.1812,18.25C27.1812,18.25,23.9562,15.04625,23.9562,15.04625C22.383,13.47254,20.3785,12.40071,18.1961,11.96633C16.0137,11.53195,13.7515,11.754529999999999,11.69561,12.60592C9.63973,13.45731,7.8825,14.89927,6.64618,16.74942C5.40986,18.59956,4.74998,20.7748,4.75,23C4.75,23.198900000000002,4.67098,23.389699999999998,4.53033,23.5303C4.38968,23.671,4.198912,23.75,4,23.75C3.801088,23.75,3.610322,23.671,3.46967,23.5303C3.3290175,23.389699999999998,3.25,23.198900000000002,3.25,23C3.250241834,20.4785,3.998147,18.01362,5.399150000000001,15.91712C6.80016,13.82062,8.79134,12.18661,11.12095,11.22169C13.4506,10.25677359,16.014,10.004283,18.487099999999998,10.496143C20.9602,10.988004,23.2319,12.20213,25.015,13.985C25.015,13.985,28.25,17.197499999999998,28.25,17.197499999999998C28.25,17.197499999999998,28.25,11,28.25,11C28.25,10.801088,28.329,10.610323,28.4697,10.46967C28.6103,10.329018,28.8011,10.25,29,10.25C29.1989,10.25,29.3897,10.329018,29.5303,10.46967C29.671,10.610323,29.75,10.801088,29.75,11Z" fill="currentColor" fill-opacity="1"/></g></g></svg>