<svg xmlns="http://www.w3.org/2000/svg" xmlns:xlink="http://www.w3.org/1999/xlink" fill="none" version="1.1"  viewBox="0 0 32 32"><g><g><path d="M28.530290625,27.470290625C28.530290625,27.470290625,22.107790625,21.047790625,22.107790625,21.047790625C23.939290625,18.941590625,24.881490625,16.206590625,24.735690625,13.419290625C24.589990625,10.631980625,23.367690625,8.010140625,21.326490625,6.106440624999999C19.285390625,4.202746625,16.584790625,3.165921225,13.794090625,3.214525415C11.003420625,3.263129625,8.340610625,4.393370625,6.366990625,6.366990625C4.393370625,8.340610625,3.263129625,11.003420625,3.214525415,13.794090625C3.165921225,16.584790625,4.202746625,19.285390625,6.106440624999999,21.326490625C8.010140625,23.367690625,10.631980625,24.589990625,13.419290625,24.735690625C16.206590625,24.881490625,18.941590625,23.939290625,21.047790625,22.107790625C21.047790625,22.107790625,27.470290625,28.530290625,27.470290625,28.530290625C27.612490625,28.662790625,27.800590625,28.734890625,27.994890625,28.731490625C28.189190625,28.728090625,28.374490625,28.649390625,28.511990625,28.511990625C28.649390625,28.374490625,28.728090625,28.189190625,28.731490625,27.994890625C28.734890625,27.800590625,28.662790625,27.612490625,28.530290625,27.470290625ZM4.750330625,14.000290625C4.750330625,12.170850625,5.292830625000001,10.382460625,6.309240625,8.861310625C7.325640625,7.340150625,8.770290625000001,6.154560625,10.460510625000001,5.454450625C12.150730625,4.754330625,14.010590625,4.571150625,15.804890625,4.928070625C17.599290625000002,5.284980625,19.247390625,6.165960625,20.541090625,7.459590625C21.834690625,8.753230625,22.715690625,10.401420625,23.072590625,12.195750625C23.429490625,13.990090625,23.246290625,15.849890625,22.546190625,17.540190625C21.846090625,19.230390625,20.660490625,20.674990625,19.139390625,21.691390625C17.618190625,22.707790625,15.829790625,23.250290625,14.000290625,23.250290625C11.547990625,23.247390625,9.196950625,22.271890625,7.462880625,20.537790625C5.7288106249999995,18.803690625,4.753310625,16.452690625000002,4.750330625,14.000290625Z" fill="currentColor" fill-opacity="1"/></g></g></svg>