<svg xmlns="http://www.w3.org/2000/svg" xmlns:xlink="http://www.w3.org/1999/xlink" fill="none" version="1.1"  viewBox="0 0 32 32"><g><g><path d="M27,6.25C27,6.25,5,6.25,5,6.25C4.801088,6.25,4.610322,6.32902,4.46967,6.46967C4.3290175,6.61032,4.250000000000001,6.80109,4.25,7C4.250000000000001,7.19891,4.3290175,7.38968,4.46967,7.53033C4.610322,7.67098,4.801088,7.75,5,7.75C5,7.75,6.25,7.75,6.25,7.75C6.25,7.75,6.25,26,6.25,26C6.25,26.4641,6.4343699999999995,26.9092,6.762560000000001,27.2374C7.09075,27.5656,7.53587,27.75,8,27.75C8,27.75,24,27.75,24,27.75C24.4641,27.75,24.9092,27.5656,25.2374,27.2374C25.5656,26.9092,25.75,26.4641,25.75,26C25.75,26,25.75,7.75,25.75,7.75C25.75,7.75,27,7.75,27,7.75C27.1989,7.75,27.3897,7.67098,27.5303,7.53033C27.671,7.38968,27.75,7.19891,27.75,7C27.75,6.80109,27.671,6.61032,27.5303,6.46967C27.3897,6.32902,27.1989,6.25,27,6.25ZM24.25,26C24.25,26.0663,24.2237,26.1299,24.1768,26.1768C24.1299,26.2237,24.0663,26.25,24,26.25C24,26.25,8,26.25,8,26.25C7.9337,26.25,7.87011,26.2237,7.82322,26.1768C7.776339999999999,26.1299,7.75,26.0663,7.75,26C7.75,26,7.75,7.75,7.75,7.75C7.75,7.75,24.25,7.75,24.25,7.75C24.25,7.75,24.25,26,24.25,26ZM10.25,3C10.25,2.801088,10.32902,2.610322,10.46967,2.46967C10.61032,2.3290175,10.80109,2.2500000000000004,11,2.25C11,2.25,21,2.25,21,2.25C21.1989,2.25,21.3897,2.3290175,21.5303,2.46967C21.671,2.610322,21.75,2.801088,21.75,3C21.75,3.198912,21.671,3.3896800000000002,21.5303,3.53033C21.3897,3.67098,21.1989,3.75,21,3.75C21,3.75,11,3.75,11,3.75C10.80109,3.75,10.61032,3.67098,10.46967,3.53033C10.32902,3.3896800000000002,10.25,3.198912,10.25,3Z" fill="currentColor" fill-opacity="1"/></g></g></svg>