<svg xmlns="http://www.w3.org/2000/svg" xmlns:xlink="http://www.w3.org/1999/xlink" fill="none" version="1.1" width="32" height="32" viewBox="0 0 32 32"><g><g><path d="M28.75,22.999966621398926C28.75,23.198866621398928,28.671,23.389666621398923,28.5303,23.530366621398926C28.3897,23.670966621398925,28.1989,23.749966621398926,28,23.749966621398926C27.8011,23.749966621398926,27.6103,23.670966621398925,27.4697,23.530366621398926C27.329,23.389666621398923,27.25,23.198866621398928,27.25,22.999966621398926C27.25,20.774966621398924,26.5902,18.599856621398928,25.3541,16.749786621398925C24.1179,14.899716621398927,22.3609,13.457756621398925,20.3052,12.606266621398927C18.249499999999998,11.754766621398925,15.9875,11.531976621398925,13.8052,11.966076621398926C11.62291,12.400166621398926,9.61834,13.471636621398925,8.045,15.044996621398926C8.045,15.044996621398926,4.81875,18.249996621398928,4.81875,18.249996621398928C4.81875,18.249996621398928,11,18.249996621398928,11,18.249996621398928C11.19891,18.249996621398928,11.38968,18.329016621398928,11.53033,18.469666621398925C11.67098,18.610326621398926,11.75,18.801086621398923,11.75,18.999996621398928C11.75,19.198916621398926,11.67098,19.389676621398927,11.53033,19.530326621398928C11.38968,19.670986621398924,11.19891,19.749996621398928,11,19.749996621398928C11,19.749996621398928,3,19.749996621398928,3,19.749996621398928C2.801088,19.749996621398928,2.610322,19.670986621398924,2.46967,19.530326621398928C2.3290175,19.389676621398927,2.25,19.198916621398926,2.25,18.999996621398928C2.25,18.999996621398928,2.25,10.999999621398926,2.25,10.999999621398926C2.25,10.801087621398926,2.3290175,10.610322621398925,2.46967,10.469670621398926C2.610322,10.329017921398925,2.801088,10.249999944198926,3,10.249999944198926C3.198912,10.249999944198926,3.3896800000000002,10.329017921398925,3.53033,10.469670621398926C3.67098,10.610322621398925,3.75,10.801087621398926,3.75,10.999999621398926C3.75,10.999999621398926,3.75,17.197496621398926,3.75,17.197496621398926C3.75,17.197496621398926,6.98625,13.982496621398926,6.98625,13.982496621398926C8.769580000000001,12.199906621398926,11.04142,10.986107621398926,13.5145,10.494573621398926C15.9877,10.003039621398926,18.551,10.255842391398925,20.8804,11.221017621398925C23.2099,12.186196621398926,25.2009,13.820396621398926,26.6016,15.917016621398925C28.0024,18.013636621398927,28.75,20.478466621398926,28.75,22.999966621398926Z" fill="#343330" fill-opacity="1"/></g></g></svg>