<svg xmlns="http://www.w3.org/2000/svg" xmlns:xlink="http://www.w3.org/1999/xlink" fill="none" version="1.1" viewBox="0 0 32 32"><g><g><path d="M25.53000822906494,24.4698546875C25.603708229064942,24.5385546875,25.662808229064943,24.6213546875,25.70380822906494,24.7133546875C25.74480822906494,24.8053546875,25.766808229064942,24.9046546875,25.76860822906494,25.0053546875C25.77040822906494,25.1060546875,25.75180822906494,25.2060546875,25.71410822906494,25.2994546875C25.67640822906494,25.3928546875,25.620208229064943,25.4776546875,25.549008229064942,25.5488546875C25.47780822906494,25.6200546875,25.393008229064943,25.6762546875,25.29960822906494,25.7139546875C25.20620822906494,25.7516546875,25.10620822906494,25.7702546875,25.00550822906494,25.7684546875C24.90480822906494,25.7666546875,24.80550822906494,25.7446546875,24.713508229064942,25.7036546875C24.62150822906494,25.6626546875,24.53870822906494,25.6035546875,24.47000822906494,25.5298546875C24.47000822906494,25.5298546875,15.999998229064941,17.0610546875,15.999998229064941,17.0610546875C15.999998229064941,17.0610546875,7.529998229064941,25.5298546875,7.529998229064941,25.5298546875C7.387828229064941,25.6623546875,7.1997782290649415,25.7344546875,7.005477229064941,25.7310546875C6.811176229064941,25.7275546875,6.625791229064942,25.6488546875,6.488378229064941,25.5114546875C6.350965029064941,25.3740546875,6.272253289064942,25.1886546875,6.2688250760649415,24.9943546875C6.265396859064942,24.8000546875,6.3375198290649415,24.6120546875,6.470000229064941,24.4698546875C6.470000229064941,24.4698546875,14.938748229064942,15.9998446875,14.938748229064942,15.9998446875C14.938748229064942,15.9998446875,6.470000229064941,7.5298446875,6.470000229064941,7.5298446875C6.3375198290649415,7.3876746875,6.265396859064942,7.1996246875,6.2688250760649415,7.0053236875C6.272253289064942,6.8110226874999995,6.350965029064941,6.6256376875,6.488378229064941,6.4882246875C6.625791229064942,6.3508114875,6.811176229064941,6.2720997475,7.005477229064941,6.2686715345C7.1997782290649415,6.2652433175,7.387828229064941,6.3373662875,7.529998229064941,6.4698466875C7.529998229064941,6.4698466875,15.999998229064941,14.9385946875,15.999998229064941,14.9385946875C15.999998229064941,14.9385946875,24.47000822906494,6.4698466875,24.47000822906494,6.4698466875C24.61220822906494,6.3373662875,24.800208229064943,6.2652433175,24.99450822906494,6.2686715345C25.188808229064943,6.2720997475,25.37420822906494,6.3508114875,25.51160822906494,6.4882246875C25.64900822906494,6.6256376875,25.72770822906494,6.8110226874999995,25.73120822906494,7.0053236875C25.734608229064943,7.1996246875,25.66250822906494,7.3876746875,25.53000822906494,7.5298446875C25.53000822906494,7.5298446875,17.061208229064942,15.9998446875,17.061208229064942,15.9998446875C17.061208229064942,15.9998446875,25.53000822906494,24.4698546875,25.53000822906494,24.4698546875Z" fill="currentColor" fill-opacity="1"/></g></g></svg>